<svg width="900" height="500" xmlns="http://www.w3.org/2000/svg">
<rect width="100%" height="100%" fill="#ffffff"/>
<text x="450.0" y="30" font-family="Arial" font-size="20" font-weight="bold" text-anchor="middle">INVERSION FILTER PERFORMANCE</text>
<line x1="80" y1="420" x2="760" y2="420" stroke="black" stroke-width="2"/>
<line x1="80" y1="50" x2="80" y2="420" stroke="black" stroke-width="2"/>
<text x="770" y="425" font-family="Arial" font-size="12">Pixels</text>
<text x="70" y="35" font-family="Arial" font-size="12" text-anchor="end">Time (ms)</text>
<line x1="75" y1="420.0" x2="80" y2="420.0" stroke="black" stroke-width="1"/>
<line x1="80" y1="420.0" x2="760" y2="420.0" stroke="#eee" stroke-width="1"/>
<text x="70" y="425.0" font-family="Arial" font-size="10" text-anchor="end">0.0</text>
<line x1="75" y1="383.0" x2="80" y2="383.0" stroke="black" stroke-width="1"/>
<line x1="80" y1="383.0" x2="760" y2="383.0" stroke="#eee" stroke-width="1"/>
<text x="70" y="388.0" font-family="Arial" font-size="10" text-anchor="end">3.4</text>
<line x1="75" y1="346.0" x2="80" y2="346.0" stroke="black" stroke-width="1"/>
<line x1="80" y1="346.0" x2="760" y2="346.0" stroke="#eee" stroke-width="1"/>
<text x="70" y="351.0" font-family="Arial" font-size="10" text-anchor="end">6.8</text>
<line x1="75" y1="309.0" x2="80" y2="309.0" stroke="black" stroke-width="1"/>
<line x1="80" y1="309.0" x2="760" y2="309.0" stroke="#eee" stroke-width="1"/>
<text x="70" y="314.0" font-family="Arial" font-size="10" text-anchor="end">10.1</text>
<line x1="75" y1="272.0" x2="80" y2="272.0" stroke="black" stroke-width="1"/>
<line x1="80" y1="272.0" x2="760" y2="272.0" stroke="#eee" stroke-width="1"/>
<text x="70" y="277.0" font-family="Arial" font-size="10" text-anchor="end">13.5</text>
<line x1="75" y1="235.0" x2="80" y2="235.0" stroke="black" stroke-width="1"/>
<line x1="80" y1="235.0" x2="760" y2="235.0" stroke="#eee" stroke-width="1"/>
<text x="70" y="240.0" font-family="Arial" font-size="10" text-anchor="end">16.9</text>
<line x1="75" y1="198.0" x2="80" y2="198.0" stroke="black" stroke-width="1"/>
<line x1="80" y1="198.0" x2="760" y2="198.0" stroke="#eee" stroke-width="1"/>
<text x="70" y="203.0" font-family="Arial" font-size="10" text-anchor="end">20.3</text>
<line x1="75" y1="161.0" x2="80" y2="161.0" stroke="black" stroke-width="1"/>
<line x1="80" y1="161.0" x2="760" y2="161.0" stroke="#eee" stroke-width="1"/>
<text x="70" y="166.0" font-family="Arial" font-size="10" text-anchor="end">23.6</text>
<line x1="75" y1="124.0" x2="80" y2="124.0" stroke="black" stroke-width="1"/>
<line x1="80" y1="124.0" x2="760" y2="124.0" stroke="#eee" stroke-width="1"/>
<text x="70" y="129.0" font-family="Arial" font-size="10" text-anchor="end">27.0</text>
<line x1="75" y1="87.0" x2="80" y2="87.0" stroke="black" stroke-width="1"/>
<line x1="80" y1="87.0" x2="760" y2="87.0" stroke="#eee" stroke-width="1"/>
<text x="70" y="92.0" font-family="Arial" font-size="10" text-anchor="end">30.4</text>
<line x1="75" y1="50.0" x2="80" y2="50.0" stroke="black" stroke-width="1"/>
<line x1="80" y1="50.0" x2="760" y2="50.0" stroke="#eee" stroke-width="1"/>
<text x="70" y="55.0" font-family="Arial" font-size="10" text-anchor="end">33.8</text>
<line x1="80.0" y1="420" x2="80.0" y2="425" stroke="black" stroke-width="1"/>
<text x="80.0" y="440" font-family="Arial" font-size="10" text-anchor="middle" transform="rotate(30, 80.0, 440)">300x300</text>
<line x1="216.0" y1="420" x2="216.0" y2="425" stroke="black" stroke-width="1"/>
<text x="216.0" y="440" font-family="Arial" font-size="10" text-anchor="middle" transform="rotate(30, 216.0, 440)">400x400</text>
<line x1="352.0" y1="420" x2="352.0" y2="425" stroke="black" stroke-width="1"/>
<text x="352.0" y="440" font-family="Arial" font-size="10" text-anchor="middle" transform="rotate(30, 352.0, 440)">500x500</text>
<line x1="488.0" y1="420" x2="488.0" y2="425" stroke="black" stroke-width="1"/>
<text x="488.0" y="440" font-family="Arial" font-size="10" text-anchor="middle" transform="rotate(30, 488.0, 440)">600x600</text>
<line x1="624.0" y1="420" x2="624.0" y2="425" stroke="black" stroke-width="1"/>
<text x="624.0" y="440" font-family="Arial" font-size="10" text-anchor="middle" transform="rotate(30, 624.0, 440)">950x950</text>
<line x1="760.0" y1="420" x2="760.0" y2="425" stroke="black" stroke-width="1"/>
<text x="760.0" y="440" font-family="Arial" font-size="10" text-anchor="middle" transform="rotate(30, 760.0, 440)">2400x2400</text>
<rect x="780" y="50" width="20" height="15" fill="#FF5733"/>
<text x="805" y="62" font-family="Arial" font-size="12">Seq</text>
<rect x="780" y="75" width="20" height="15" fill="#33FF57"/>
<text x="805" y="87" font-family="Arial" font-size="12">OMP</text>
<rect x="780" y="100" width="20" height="15" fill="#3357FF"/>
<text x="805" y="112" font-family="Arial" font-size="12">SIMD</text>
<rect x="780" y="125" width="20" height="15" fill="#F333FF"/>
<text x="805" y="137" font-family="Arial" font-size="12">OCL</text>
<circle cx="80.0" cy="417.61927273158153" r="4" fill="#FF5733"/>
<circle cx="216.0" cy="412.1465977302732" r="4" fill="#FF5733"/>
<circle cx="352.0" cy="407.49292944453606" r="4" fill="#FF5733"/>
<circle cx="488.0" cy="402.3802616910284" r="4" fill="#FF5733"/>
<circle cx="624.0" cy="374.84003787815203" r="4" fill="#FF5733"/>
<circle cx="760.0" cy="118.41405480877756" r="4" fill="#FF5733"/>
<polyline points="80.0,417.61927273158153 216.0,412.1465977302732 352.0,407.49292944453606 488.0,402.3802616910284 624.0,374.84003787815203 760.0,118.41405480877756" fill="none" stroke="#FF5733" stroke-width="3"/>
<circle cx="80.0" cy="410.1386869631419" r="4" fill="#33FF57"/>
<circle cx="216.0" cy="410.98264724440395" r="4" fill="#33FF57"/>
<circle cx="352.0" cy="409.96437735565866" r="4" fill="#33FF57"/>
<circle cx="488.0" cy="408.5564336080717" r="4" fill="#33FF57"/>
<circle cx="624.0" cy="400.02647915862315" r="4" fill="#33FF57"/>
<circle cx="760.0" cy="362.08251828489784" r="4" fill="#33FF57"/>
<polyline points="80.0,410.1386869631419 216.0,410.98264724440395 352.0,409.96437735565866 488.0,408.5564336080717 624.0,400.02647915862315 760.0,362.08251828489784" fill="none" stroke="#33FF57" stroke-width="3"/>
<circle cx="80.0" cy="419.39260171360127" r="4" fill="#3357FF"/>
<circle cx="216.0" cy="417.34282522037165" r="4" fill="#3357FF"/>
<circle cx="352.0" cy="415.8313333089765" r="4" fill="#3357FF"/>
<circle cx="488.0" cy="413.78900635021887" r="4" fill="#3357FF"/>
<circle cx="624.0" cy="404.88340026522604" r="4" fill="#3357FF"/>
<circle cx="760.0" cy="318.83272786878126" r="4" fill="#3357FF"/>
<polyline points="80.0,419.39260171360127 216.0,417.34282522037165 352.0,415.8313333089765 488.0,413.78900635021887 624.0,404.88340026522604 760.0,318.83272786878126" fill="none" stroke="#3357FF" stroke-width="3"/>
<circle cx="80.0" cy="177.26099290920203" r="4" fill="#F333FF"/>
<circle cx="216.0" cy="176.08638509520395" r="4" fill="#F333FF"/>
<circle cx="352.0" cy="174.54934774730654" r="4" fill="#F333FF"/>
<circle cx="488.0" cy="178.95915064464944" r="4" fill="#F333FF"/>
<circle cx="624.0" cy="157.02595285374753" r="4" fill="#F333FF"/>
<circle cx="760.0" cy="50.0" r="4" fill="#F333FF"/>
<polyline points="80.0,177.26099290920203 216.0,176.08638509520395 352.0,174.54934774730654 488.0,178.95915064464944 624.0,157.02595285374753 760.0,50.0" fill="none" stroke="#F333FF" stroke-width="3"/>
</svg>